<?xml version="1.0" encoding="iso-8859-1"?>
<!-- Generator: Adobe Illustrator 19.0.0, SVG Export Plug-In . SVG Version: 6.00 Build 0)  -->
<svg height="42px" width="42px" version="1.1" id="Capa_1" xmlns="http://www.w3.org/2000/svg" xmlns:xlink="http://www.w3.org/1999/xlink" x="0px" y="0px"
	 viewBox="0 0 341.333 341.333" style="enable-background:new 0 0 341.333 341.333;" xml:space="preserve">
<path style="fill:#FFCC80;" d="M320,74.667v138.667c-0.106,70.649-57.351,127.894-128,128
	c-40.968,0.016-80.262-16.255-109.227-45.227L40.107,253.44c-11.976-12.011-18.723-28.266-18.773-45.227v-32.427
	c0.05-16.961,6.797-33.216,18.773-45.227L64,106.667V53.333C63.882,35.66,78.114,21.238,95.787,21.12
	C113.46,21.002,127.882,35.234,128,52.907V32c0.173-17.601,14.399-31.827,32-32c17.265-0.01,31.424,13.678,32,30.933V52.48
	c0.158-8.777,4.035-17.075,10.667-22.827c5.806-5.367,13.427-8.339,21.333-8.32c17.265-0.01,31.424,13.678,32,30.933v22.4
	c0.173-17.601,14.399-31.827,32-32C305.673,42.667,320,56.994,320,74.667z"/>
<g>
	<path style="fill:#FFB74D;" d="M128,52.907V96c5.891,0,10.667-4.776,10.667-10.667V8.32L128,32V52.907z"/>
	<path style="fill:#FFB74D;" d="M192,96c5.891,0,10.667-4.776,10.667-10.667v-55.68C196.035,35.405,192.158,43.703,192,52.48V96z"/>
	<path style="fill:#FFB74D;" d="M256,74.667V96c5.891,0,10.667-4.776,10.667-10.667V50.987
		C259.849,56.962,255.958,65.601,256,74.667z"/>
</g>
</svg>
